HIERARCHY
ROOT Hips
{
	OFFSET	0.0000	0.0000	0.0000
	CHANNELS 6 Xposition Yposition Zposition Xrotation Yrotation Zrotation
	JOINT Chest
	{
		OFFSET	0.0000	9.0154	-4.8787
		CHANNELS 3 Xrotation Yrotation Zrotation
		JOINT Chest2
		{
			OFFSET	0.0000	8.2272	0.4298
			CHANNELS 3 Xrotation Yrotation Zrotation
			JOINT Chest3
			{
				OFFSET	0.0000	10.1803	-2.2660
				CHANNELS 3 Xrotation Yrotation Zrotation
				JOINT Neck
				{
					OFFSET	-0.0001	29.1210	3.3175
					CHANNELS 3 Xrotation Yrotation Zrotation
					JOINT Head
					{
						OFFSET	0.0000	9.3538	2.3943
						CHANNELS 3 Xrotation Yrotation Zrotation
						End Site
						{
							OFFSET	-0.0001	18.2265	-1.1497
						}
					}
				}
				JOINT LeftCollar
				{
					OFFSET	2.3161	22.1390	7.5850
					CHANNELS 3 Xrotation Yrotation Zrotation
					JOINT LeftShoulder
					{
						OFFSET	13.8499	-1.1611	-5.1384
						CHANNELS 3 Xrotation Yrotation Zrotation
						JOINT LeftElbow
						{
							OFFSET	-0.1020	-28.7420	-0.2490
							CHANNELS 3 Xrotation Yrotation Zrotation
							JOINT LeftWrist
							{
								OFFSET	0.0695	-23.9770	-0.1436
								CHANNELS 3 Xrotation Yrotation Zrotation
								JOINT LeftFinger1
								{
									OFFSET	0.8127	-9.2928	2.5811
									CHANNELS 3 Xrotation Yrotation Zrotation
									JOINT LeftFinger11
									{
										OFFSET	-0.8476	-3.4760	0.6125
										CHANNELS 3 Xrotation Yrotation Zrotation
										JOINT LeftFinger12
										{
											OFFSET	-0.5788	-2.3730	0.4182
											CHANNELS 3 Xrotation Yrotation Zrotation
											End Site
											{
												OFFSET	-0.5041	-1.6886	0.2739
											}
										}
									}
								}
								JOINT LeftFinger2
								{
									OFFSET	0.9385	-9.4315	0.2247
									CHANNELS 3 Xrotation Yrotation Zrotation
									JOINT LeftFinger21
									{
										OFFSET	0.0120	-4.2978	-0.0254
										CHANNELS 3 Xrotation Yrotation Zrotation
										JOINT LeftFinger22
										{
											OFFSET	0.0073	-2.3823	-0.0145
											CHANNELS 3 Xrotation Yrotation Zrotation
											End Site
											{
												OFFSET	-0.1511	-2.1397	0.0029
											}
										}
									}
								}
								JOINT LeftFinger3
								{
									OFFSET	0.6264	-8.9383	-2.1146
									CHANNELS 3 Xrotation Yrotation Zrotation
									JOINT LeftFinger31
									{
										OFFSET	-0.1974	-3.8998	-0.2442
										CHANNELS 3 Xrotation Yrotation Zrotation
										JOINT LeftFinger32
										{
											OFFSET	-0.1118	-2.2223	-0.1396
											CHANNELS 3 Xrotation Yrotation Zrotation
											End Site
											{
												OFFSET	-0.2416	-1.9649	-0.0929
											}
										}
									}
								}
								JOINT LeftFinger4
								{
									OFFSET	-0.6303	-8.2944	-3.6520
									CHANNELS 3 Xrotation Yrotation Zrotation
									JOINT LeftFinger41
									{
										OFFSET	-0.5002	-2.3988	-0.6622
										CHANNELS 3 Xrotation Yrotation Zrotation
										JOINT LeftFinger42
										{
											OFFSET	-0.3663	-1.7591	-0.4859
											CHANNELS 3 Xrotation Yrotation Zrotation
											End Site
											{
												OFFSET	-0.4290	-1.5613	-0.3582
											}
										}
									}
								}
								JOINT LeftFinger0
								{
									OFFSET	-1.4550	-1.9224	1.4574
									CHANNELS 3 Xrotation Yrotation Zrotation
									JOINT LeftFinger01
									{
										OFFSET	-1.1754	-3.5791	2.6984
										CHANNELS 3 Xrotation Yrotation Zrotation
										JOINT LeftFinger02
										{
											OFFSET	-0.8433	-2.3568	1.6980
											CHANNELS 3 Xrotation Yrotation Zrotation
											End Site
											{
												OFFSET	-0.5966	-1.7331	1.1867
											}
										}
									}
								}
							}
						}
					}
				}
				JOINT RightCollar
				{
					OFFSET	-2.3161	22.1390	7.5850
					CHANNELS 3 Xrotation Yrotation Zrotation
					JOINT RightShoulder
					{
						OFFSET	-13.8523	-1.1613	-5.1393
						CHANNELS 3 Xrotation Yrotation Zrotation
						JOINT RightElbow
						{
							OFFSET	0.1020	-28.7420	-0.2490
							CHANNELS 3 Xrotation Yrotation Zrotation
							JOINT RightWrist
							{
								OFFSET	-0.0696	-23.9770	-0.1436
								CHANNELS 3 Xrotation Yrotation Zrotation
								JOINT RightFinger1
								{
									OFFSET	-0.8128	-9.2928	2.5811
									CHANNELS 3 Xrotation Yrotation Zrotation
									JOINT RightFinger11
									{
										OFFSET	0.8476	-3.4760	0.6125
										CHANNELS 3 Xrotation Yrotation Zrotation
										JOINT RightFinger12
										{
											OFFSET	0.5789	-2.3729	0.4183
											CHANNELS 3 Xrotation Yrotation Zrotation
											End Site
											{
												OFFSET	0.5041	-1.6886	0.2739
											}
										}
									}
								}
								JOINT RightFinger2
								{
									OFFSET	-0.9386	-9.4315	0.2247
									CHANNELS 3 Xrotation Yrotation Zrotation
									JOINT RightFinger21
									{
										OFFSET	-0.0120	-4.2979	-0.0254
										CHANNELS 3 Xrotation Yrotation Zrotation
										JOINT RightFinger22
										{
											OFFSET	-0.0073	-2.3823	-0.0146
											CHANNELS 3 Xrotation Yrotation Zrotation
											End Site
											{
												OFFSET	0.1511	-2.1397	0.0029
											}
										}
									}
								}
								JOINT RightFinger3
								{
									OFFSET	-0.6264	-8.9383	-2.1147
									CHANNELS 3 Xrotation Yrotation Zrotation
									JOINT RightFinger31
									{
										OFFSET	0.1974	-3.8998	-0.2442
										CHANNELS 3 Xrotation Yrotation Zrotation
										JOINT RightFinger32
										{
											OFFSET	0.1118	-2.2223	-0.1396
											CHANNELS 3 Xrotation Yrotation Zrotation
											End Site
											{
												OFFSET	0.2416	-1.9649	-0.0929
											}
										}
									}
								}
								JOINT RightFinger4
								{
									OFFSET	0.6303	-8.2944	-3.6520
									CHANNELS 3 Xrotation Yrotation Zrotation
									JOINT RightFinger41
									{
										OFFSET	0.5002	-2.3988	-0.6622
										CHANNELS 3 Xrotation Yrotation Zrotation
										JOINT RightFinger42
										{
											OFFSET	0.3662	-1.7590	-0.4859
											CHANNELS 3 Xrotation Yrotation Zrotation
											End Site
											{
												OFFSET	0.4290	-1.5613	-0.3582
											}
										}
									}
								}
								JOINT RightFinger0
								{
									OFFSET	1.4549	-1.9224	1.4572
									CHANNELS 3 Xrotation Yrotation Zrotation
									JOINT RightFinger01
									{
										OFFSET	1.1756	-3.5791	2.6985
										CHANNELS 3 Xrotation Yrotation Zrotation
										JOINT RightFinger02
										{
											OFFSET	0.8432	-2.3567	1.6979
											CHANNELS 3 Xrotation Yrotation Zrotation
											End Site
											{
												OFFSET	0.5966	-1.7331	1.1867
											}
										}
									}
								}
							}
						}
					}
				}
			}
		}
	}
	JOINT RightHip
	{
		OFFSET	-9.6442	4.0752	-0.7950
		CHANNELS 3 Xrotation Yrotation Zrotation
		JOINT RightKnee
		{
			OFFSET	-0.7717	-41.9481	0.0000
			CHANNELS 3 Xrotation Yrotation Zrotation
			JOINT RightAnkle
			{
				OFFSET	0.0000	-41.1905	0.0000
				CHANNELS 3 Xrotation Yrotation Zrotation
				JOINT RightToe
				{
					OFFSET	0.0000	-4.5272	9.4670
					CHANNELS 3 Xrotation Yrotation Zrotation
					End Site
					{
						OFFSET	0.0000	0.0000	6.3510
					}
				}
			}
		}
	}
	JOINT LeftHip
	{
		OFFSET	9.6441	4.0755	-0.7950
		CHANNELS 3 Xrotation Yrotation Zrotation
		JOINT LeftKnee
		{
			OFFSET	0.7718	-41.9484	0.0000
			CHANNELS 3 Xrotation Yrotation Zrotation
			JOINT LeftAnkle
			{
				OFFSET	0.0000	-41.1905	0.0000
				CHANNELS 3 Xrotation Yrotation Zrotation
				JOINT LeftToe
				{
					OFFSET	0.0000	-4.5272	9.4670
					CHANNELS 3 Xrotation Yrotation Zrotation
					End Site
					{
						OFFSET	0.0000	0.0000	6.3510
					}
				}
			}
		}
	}
}
MOTION
Frames:	5
Frame Time: 0.0333333000
	0.0000	85.9424	2.8200	0.000000	0.000000	0.000000	0.000000	0.000000	0.000000	0.000000	0.000000	0.000000	0.000000	0.000000	0.000000	0.000000	0.000000	0.000000	0.000000	0.000000	0.000000	0.000000	0.000000	0.000000	0.000000	0.000000	0.000000	0.000000	0.000000	0.000000	0.000000	0.000000	0.000000	0.000000	0.000000	0.000000	0.000000	0.000000	0.000000	0.000000	0.000000	0.000000	0.000000	0.000000	0.000000	0.000000	0.000000	0.000000	0.000000	0.000000	0.000000	0.000000	0.000000	0.000000	0.000000	0.000000	0.000000	0.000000	0.000000	0.000000	0.000000	0.000000	0.000000	0.000000	0.000000	0.000000	0.000000	0.000000	0.000000	0.000000	0.000000	0.000000	0.000000	0.000000	0.000000	0.000000	0.000000	0.000000	0.000000	0.000000	0.000000	0.000000	0.000000	0.000000	0.000000	0.000000	0.000000	0.000000	0.000000	0.000000	0.000000	0.000000	0.000000	0.000000	0.000000	0.000000	0.000000	0.000000	0.000000	0.000000	0.000000	0.000000	0.000000	0.000000	0.000000	0.000000	0.000000	0.000000	0.000000	0.000000	0.000000	0.000000	0.000000	0.000000	0.000000	0.000000	0.000000	0.000000	0.000000	0.000000	0.000000	0.000000	0.000000	0.000000	0.000000	0.000000	0.000000	0.000000	0.000000	0.000000	0.000000	0.000000	0.000000	0.000000	0.000000	0.000000	0.000000	0.000000	0.000000	0.000000	0.000000	0.000000	0.000000	0.000000	0.000000	0.000000	0.000000	0.000000	0.000000	0.000000	0.000000	0.000000	0.000000	0.000000	0.000000	0.000000	0.000000	0.000000	0.000000
	-5.8198	88.2601	-39.0604	7.108350	43.349490	-9.275645	4.906268	-0.827609	0.623608	4.906270	-0.827597	0.623604	4.906271	-0.827606	0.623608	-0.000002	-0.000004	0.000001	0.000000	-0.000003	0.000001	-0.000002	-0.000005	-13.601510	8.459570	-15.734250	31.617610	-39.183540	-0.225149	0.618234	0.000001	-0.000001	0.000000	-0.000002	0.000002	0.000001	0.000001	-0.000001	0.000000	-0.000002	0.000002	0.000001	-0.000002	0.000002	0.000001	0.000001	-0.000001	0.000000	-0.000002	0.000002	0.000001	-0.000002	0.000002	0.000001	0.000001	-0.000001	0.000000	-0.000002	0.000002	0.000001	-0.000002	0.000002	0.000001	0.000001	-0.000001	0.000000	-0.000002	0.000002	0.000001	-0.000002	0.000002	0.000001	0.000001	-0.000001	0.000000	-0.000002	0.000002	0.000001	-0.000002	0.000002	12.465710	8.915093	4.850433	-34.322490	-39.314850	0.226569	-0.619945	0.000000	-0.000003	0.000001	0.000000	0.000000	-0.000001	0.000001	-0.000003	0.000001	-0.000001	-0.000003	-0.000001	0.000000	0.000000	-0.000001	0.000001	-0.000003	0.000001	-0.000001	-0.000003	-0.000001	0.000000	0.000000	-0.000001	0.000001	-0.000003	0.000001	-0.000001	-0.000003	-0.000001	0.000000	0.000000	-0.000001	0.000001	-0.000003	0.000001	-0.000001	-0.000003	-0.000001	0.000000	0.000000	-0.000001	0.000001	-0.000003	0.000001	-0.000001	-0.000003	-0.000001	-32.306850	-4.275253	5.687803	29.763300	-0.000003	0.000001	10.022920	-1.511401	-0.494506	0.000000	0.000001	0.000000	-3.628999	9.042638	4.495078	44.310640	0.000005	-0.000003	3.624915	-1.705936	-0.718133	-0.000001	0.000000	0.000001
	-2.8676	88.3626	-35.6097	6.797068	43.342820	-8.963889	4.864989	-0.844622	0.666062	4.864988	-0.844620	0.666062	4.864989	-0.844613	0.666060	-0.000003	-0.000005	0.000001	0.000002	0.000003	-0.000001	-0.000001	-0.000004	-13.641360	9.637307	-14.824190	31.339870	-39.735450	-0.231191	0.625458	0.000000	0.000000	0.000000	0.000000	0.000000	0.000000	0.000000	0.000000	0.000000	0.000000	0.000000	0.000000	0.000000	0.000000	0.000000	0.000000	0.000000	0.000000	0.000000	0.000000	0.000000	0.000000	0.000000	0.000000	0.000000	0.000000	0.000000	0.000000	0.000000	0.000000	0.000000	0.000000	0.000000	0.000000	0.000000	0.000000	0.000000	0.000000	0.000000	0.000000	0.000000	0.000000	0.000000	0.000000	0.000000	0.000000	0.000000	0.000000	-0.000003	-0.000001	12.411820	8.919370	6.358847	-34.399840	-36.707840	0.198878	-0.585154	0.000000	-0.000001	0.000002	0.000001	0.000000	0.000001	0.000001	0.000000	0.000001	0.000001	0.000000	0.000001	0.000001	0.000000	0.000001	0.000001	0.000000	0.000001	0.000001	0.000000	0.000001	0.000001	0.000000	0.000001	0.000001	0.000000	0.000001	0.000001	0.000000	0.000001	0.000001	0.000000	0.000001	0.000001	0.000000	0.000001	0.000001	0.000000	0.000001	0.000001	0.000000	0.000001	0.000001	0.000000	0.000001	0.000001	0.000000	0.000001	-29.334400	-4.012869	5.948284	30.129980	0.000004	0.000000	5.916779	-1.020201	-0.322819	0.000001	0.000000	0.000000	-5.237619	8.941060	5.552704	46.396630	0.000006	0.000000	6.419852	-1.144464	-0.439688	0.000000	0.000000	0.000000
	-0.0752	88.6854	-32.2540	6.658750	43.356690	-8.827635	4.822172	-0.900860	0.658807	4.822170	-0.900860	0.658807	4.822173	-0.900862	0.658808	0.000000	0.000000	0.000001	0.000000	0.000000	0.000000	0.000001	-0.000001	-13.647330	10.595340	-14.055200	30.932660	-40.924290	-0.244457	0.640805	0.000002	-0.000002	-0.000001	-0.000002	0.000002	0.000001	0.000002	-0.000002	-0.000001	-0.000002	0.000002	0.000001	-0.000002	0.000002	0.000001	0.000002	-0.000002	-0.000001	-0.000002	0.000002	0.000001	-0.000002	0.000002	0.000001	0.000002	-0.000002	-0.000001	-0.000002	0.000002	0.000001	-0.000002	0.000002	0.000001	0.000002	-0.000002	-0.000001	-0.000002	0.000002	0.000001	-0.000002	0.000002	0.000001	0.000002	-0.000002	-0.000001	-0.000002	0.000002	0.000001	0.000000	-0.000004	12.396410	8.489916	8.022845	-34.207260	-34.738690	0.179031	-0.558053	-0.000001	-0.000004	0.000000	0.000001	0.000000	0.000000	0.000000	-0.000001	0.000000	0.000001	0.000000	0.000000	0.000001	0.000000	0.000000	0.000000	-0.000001	0.000000	0.000001	0.000000	0.000000	0.000001	0.000000	0.000000	0.000000	-0.000001	0.000000	0.000001	0.000000	0.000000	0.000001	0.000000	0.000000	0.000000	-0.000001	0.000000	0.000001	0.000000	0.000000	0.000001	0.000000	0.000000	0.000000	-0.000001	0.000000	0.000001	0.000000	0.000000	-25.565700	-3.946000	6.261856	28.929210	0.000005	0.000000	1.935189	-0.795436	-0.265493	0.000000	-0.000002	0.000000	-7.284686	8.849596	6.348246	46.453520	0.000003	0.000000	7.990443	-0.508821	-0.174111	0.000001	-0.000001	-0.000001
	2.5319	89.1965	-29.2060	6.648106	43.378640	-8.747186	4.799973	-0.931875	0.651617	4.799975	-0.931873	0.651618	4.799973	-0.931874	0.651616	0.000001	0.000001	0.000000	0.000001	0.000001	0.000000	0.000003	0.000007	-13.651380	11.813320	-13.083430	30.664990	-43.333240	-0.272286	0.671031	-0.000002	0.000000	0.000000	0.000000	0.000002	0.000000	0.000000	0.000000	0.000001	0.000000	0.000000	0.000000	0.000000	0.000002	0.000000	0.000000	0.000000	0.000001	0.000000	0.000000	0.000000	0.000000	0.000002	0.000000	0.000000	0.000000	0.000001	0.000000	0.000000	0.000000	0.000000	0.000002	0.000000	0.000000	0.000000	0.000001	0.000000	0.000000	0.000000	0.000000	0.000002	0.000000	0.000000	0.000000	0.000001	0.000000	0.000000	0.000000	0.000001	0.000004	12.382950	7.702208	10.355520	-34.097970	-32.887380	0.161231	-0.531970	0.000001	-0.000003	0.000000	0.000001	-0.000003	0.000000	0.000001	-0.000003	0.000000	0.000001	-0.000003	0.000000	0.000001	-0.000003	0.000000	0.000001	-0.000003	0.000000	0.000001	-0.000003	0.000000	0.000001	-0.000003	0.000000	0.000001	-0.000003	0.000000	0.000001	-0.000003	0.000000	0.000001	-0.000003	0.000000	0.000001	-0.000003	0.000000	0.000001	-0.000003	0.000000	0.000001	-0.000003	0.000000	0.000001	-0.000003	0.000000	0.000001	-0.000003	0.000000	-21.936630	-3.863933	6.490319	27.316770	-0.000001	0.000001	-0.283682	-0.903383	-0.354556	0.000000	0.000000	0.000000	-10.526300	8.673122	6.932982	45.454860	0.000004	0.000001	6.815041	-0.293275	-0.069112	0.000004	0.000000	0.000000
